<svg width="52" height="45" viewBox="0 0 52 45" fill="none" xmlns="http://www.w3.org/2000/svg">
<path d="M0.0542684 28.3839L0.00599368 3.24139C0.00266124 1.50578 1.43621 0.095815 3.20808 0.0924129L12.8324 0.0739337L12.8928 31.5021L3.26842 31.5206C1.49656 31.524 0.0576012 30.1197 0.0542684 28.3839Z" fill="#EB3737"/>
<path d="M45.4598 28.2974L35.9827 28.3156C35.154 28.3172 34.7399 28.8597 34.601 29.0932C34.462 29.3252 34.1812 29.9442 34.5836 30.6524L37.9362 36.5403C38.6718 37.8294 38.7499 39.347 38.1525 40.7032C37.5552 42.0609 36.3728 43.0469 34.9088 43.4072L32.554 43.9887C31.9809 44.131 31.3728 43.9526 30.9725 43.5191L18.154 29.622C16.8245 28.1774 16.0909 26.3128 16.0872 24.37L16.0556 7.92548C16.0473 3.59336 19.6387 0.0615282 24.0608 0.0530375L40.0184 0.0239318C43.6213 0.0170141 46.8073 2.38797 47.7647 5.78831L51.2185 21.1766C51.3196 21.6046 51.3721 22.0434 51.373 22.4823C51.3791 25.6819 48.7259 28.2911 45.4598 28.2974Z" fill="#EB3737"/>
</svg>
