<svg width="52" height="44" viewBox="0 0 52 44" fill="none" xmlns="http://www.w3.org/2000/svg">
<path d="M0 15.7146V40.8572C0 42.5928 1.43635 44 3.20833 44H12.8333V12.5718H3.20833C1.43635 12.5718 0 13.9788 0 15.7146Z" fill="#28DC86"/>
<path d="M45.4085 15.7139H35.9308C35.1021 15.7139 34.687 15.1722 34.5475 14.9389C34.4081 14.7072 34.1261 14.0888 34.5272 13.3798L37.8686 7.48546C38.6018 6.19488 38.677 4.67718 38.077 3.32213C37.477 1.96557 36.2927 0.981898 34.8279 0.624342L32.4718 0.0473387C31.8984 -0.0938428 31.2906 0.0857035 30.8911 0.519991L18.0985 14.4417C16.7716 15.8888 16.0416 17.7549 16.0416 19.6976V36.1422C16.0416 40.4743 19.64 43.9993 24.0625 43.9993L40.0211 43.9977C43.6242 43.9977 46.8059 41.6207 47.7568 38.2185L51.1813 22.8236C51.2816 22.3954 51.3333 21.9565 51.3333 21.5176C51.3333 18.318 48.6748 15.7139 45.4085 15.7139Z" fill="#28DC86"/>
</svg>
